<svg xmlns="http://www.w3.org/2000/svg" version="1.1" xmlns:xlink="http://www.w3.org/1999/xlink" xmlns:svgjs="http://svgjs.com/svgjs" width="512" height="512" x="0" y="0" viewBox="0 0 16.933333 16.933334" style="enable-background:new 0 0 512 512" xml:space="preserve" class=""><g><g xmlns="http://www.w3.org/2000/svg" id="layer1" transform="translate(0 -280.067)"><path id="path18398" d="m8.4666681 280.59581c-4.3806263 0-7.93749965 3.55687-7.93749965 7.9375 0 4.38062 3.55687335 7.9375 7.93749965 7.9375 4.3806279 0 7.9375009-3.55688 7.9375009-7.9375 0-1.21755-.275508-2.3713-.766362-3.4029l-.788066.78807c-.148806.14965-.351715.23405-.562756.23409h-.219108c.311889.73159.484725 1.53605.484725 2.38074 0 3.35775-2.728184 6.08593-6.0859339 6.08593-3.3577489 0-6.085933-2.72818-6.085933-6.08593s2.7281841-6.08594 6.085933-6.08594c.844849 0 1.6495439.17272 2.3812509.48473v-.21911c.000038-.21104.08444-.41395.234094-.56276l.787549-.78806c-1.031594-.49086-2.1853489-.76636-3.4028939-.76636zm5.0198489 0a.26460982.26460982 0 0 0 -.179834.078l-1.851566 1.85156a.26460982.26460982 0 0 0 -.07803.18759v1.74305l-3.4938429 3.49384c-.32028.32028-.32028.84812 0 1.1684.320279.32028.846574.31874 1.166853-.002l3.4933269-3.49331h1.743563a.26460982.26460982 0 0 0 .187585-.078l1.851567-1.85157a.26460982.26460982 0 0 0 -.187585-.45114h-1.214396l.210839-.21084c.32028-.32028.321812-.84657.0016-1.16685-.160139-.16014-.372434-.2403-.58446-.2403s-.423804.0802-.583944.2403l-.210334.21032v-1.21594a.26460982.26460982 0 0 0 -.271301-.26355zm-5.0198489 3.70313c-2.334871 0-4.2343665 1.8995-4.2343665 4.23437s1.8994955 4.2323 4.2343665 4.2323c2.3348719 0 4.2322999-1.89743 4.2322999-4.2323 0-.67363-.161543-1.30884-.44235-1.87482l-1.449524 1.44952c.02511.13824.04031.27996.04031.4253 0 1.31199-1.0687389 2.38073-2.3807339 2.38073-1.311994 0-2.380733-1.06874-2.380733-2.38073 0-1.312 1.068739-2.38074 2.380733-2.38074.145337 0 .287053.0152.425298.0403l1.4500399-1.45004c-.5660089-.28138-1.2012869-.4439-1.8753379-.4439z" font-variant-ligatures="normal" font-variant-position="normal" font-variant-caps="normal" font-variant-numeric="normal" font-variant-alternates="normal" font-feature-settings="normal" text-indent="0" text-align="start" text-decoration-line="none" text-decoration-style="solid" text-decoration-color="rgb(0,0,0)" text-transform="none" text-orientation="mixed" white-space="normal" shape-padding="0" isolation="auto" mix-blend-mode="normal" solid-color="rgb(0,0,0)" solid-opacity="1" vector-effect="none" fill="#8554f5" data-original="#000000" class=""></path></g></g></svg>