<svg xmlns="http://www.w3.org/2000/svg" version="1.1" xmlns:xlink="http://www.w3.org/1999/xlink" xmlns:svgjs="http://svgjs.com/svgjs" width="512" height="512" x="0" y="0" viewBox="0 0 64 64" style="enable-background:new 0 0 512 512" xml:space="preserve" class=""><g><g xmlns="http://www.w3.org/2000/svg"><g><path d="m25.642 23.851c-.552 0-1-.447-1-1v-16.85c0-.553.448-1 1-1s1 .447 1 1v16.85c0 .552-.448 1-1 1z" fill="#2d75f9" data-original="#000000" class=""></path></g><g><path d="m12.547 40.698c-.552 0-1-.447-1-1v-15.396c0-.553.448-1 1-1s1 .447 1 1v15.396c0 .553-.447 1-1 1z" fill="#2d75f9" data-original="#000000" class=""></path></g><g><path d="m38.358 59.001c-.552 0-1-.447-1-1v-33.699c0-.553.448-1 1-1s1 .447 1 1v33.699c0 .553-.448 1-1 1z" fill="#2d75f9" data-original="#000000" class=""></path></g><g><path d="m12.547 40.698h-6.547c-.552 0-1-.447-1-1s.448-1 1-1h6.547c.552 0 1 .447 1 1s-.447 1-1 1z" fill="#2d75f9" data-original="#000000" class=""></path></g><g><path d="m25.642 40.698c-.552 0-1-.447-1-1v-16.847c0-.553.448-1 1-1s1 .447 1 1v16.848c0 .552-.448.999-1 .999z" fill="#2d75f9" data-original="#000000" class=""></path></g><g><path d="m51.453 40.698c-.552 0-1-.447-1-1v-15.396c0-.553.448-1 1-1s1 .447 1 1v15.396c0 .553-.448 1-1 1z" fill="#2d75f9" data-original="#000000" class=""></path></g><g><path d="m32.189 40.698h-6.547c-.552 0-1-.447-1-1s.448-1 1-1h6.547c.552 0 1 .447 1 1s-.447 1-1 1z" fill="#2d75f9" data-original="#000000" class=""></path></g><g><path d="m58 25.302h-6.547c-.552 0-1-.447-1-1s.448-1 1-1h6.547c.552 0 1 .447 1 1s-.448 1-1 1z" fill="#2d75f9" data-original="#000000" class=""></path></g><g><path d="m38.358 25.302h-6.548c-.552 0-1-.447-1-1s.448-1 1-1h6.548c.552 0 1 .447 1 1s-.448 1-1 1z" fill="#2d75f9" data-original="#000000" class=""></path></g><g><path d="m12.546 25.302c-.201 0-.405-.061-.581-.186-.449-.322-.553-.947-.231-1.396l13.095-18.301c.321-.449.945-.555 1.396-.232.449.322.553.947.231 1.396l-13.095 18.301c-.195.273-.503.418-.815.418z" fill="#2d75f9" data-original="#000000" class=""></path></g><g><path d="m19.096 59.001c-.312 0-.619-.146-.814-.418l-13.095-18.303c-.321-.449-.218-1.074.231-1.395.449-.322 1.074-.219 1.396.23l13.095 18.303c.321.449.218 1.074-.231 1.395-.178.127-.381.188-.582.188z" fill="#2d75f9" data-original="#000000" class=""></path></g><g><path d="m38.357 59.001c-.201 0-.405-.061-.581-.188-.449-.32-.553-.945-.231-1.395l13.095-18.303c.321-.449.946-.553 1.396-.23.449.32.553.945.231 1.395l-13.096 18.303c-.195.271-.502.418-.814.418z" fill="#2d75f9" data-original="#000000" class=""></path></g><g><path d="m19.094 59.001c-.201 0-.405-.061-.581-.188-.449-.32-.553-.945-.231-1.395l13.095-18.303c.32-.449.945-.553 1.396-.23.449.32.553.945.231 1.395l-13.096 18.303c-.195.271-.502.418-.814.418z" fill="#2d75f9" data-original="#000000" class=""></path></g><g><path d="m58.001 25.302c-.312 0-.619-.145-.814-.418l-13.095-18.301c-.321-.449-.218-1.074.231-1.396.45-.322 1.074-.217 1.396.232l13.094 18.301c.321.449.218 1.074-.231 1.396-.176.125-.38.186-.581.186z" fill="#2d75f9" data-original="#000000" class=""></path></g><g><path d="m31.809 25.302c-.201 0-.405-.061-.581-.186-.449-.322-.553-.947-.231-1.396l13.095-18.301c.321-.449.945-.555 1.396-.232.449.322.553.947.231 1.396l-13.095 18.301c-.196.273-.503.418-.815.418z" fill="#2d75f9" data-original="#000000" class=""></path></g></g></g></svg>