<svg xmlns="http://www.w3.org/2000/svg" version="1.1" xmlns:xlink="http://www.w3.org/1999/xlink" xmlns:svgjs="http://svgjs.com/svgjs" width="512" height="512" x="0" y="0" viewBox="0 0 512 512" style="enable-background:new 0 0 512 512" xml:space="preserve" class=""><g><path xmlns="http://www.w3.org/2000/svg" clip-rule="evenodd" d="m429.21 10h62.79c5.508 0 10 4.492 10 10v472c0 5.508-4.492 10-10 10h-62.79c-5.508 0-10-4.492-10-10v-472c0-5.508 4.492-10 10-10zm-409.21 296.388h62.79c5.508 0 10 4.492 10 10v175.612c0 5.508-4.492 10-10 10h-62.79c-5.508 0-10-4.492-10-10v-175.612c0-5.508 4.492-10 10-10zm136.403-98.796h62.79c5.508 0 10 4.492 10 10v274.408c0 5.508-4.492 10-10 10-20.93 0-41.86 0-62.79 0-5.508 0-10-4.492-10-10 0-91.47 0-182.939 0-274.408.001-5.508 4.493-10 10-10zm136.403-98.796h62.79c5.508 0 10 4.492 10 10v373.204c0 5.508-4.492 10-10 10-20.93 0-41.86 0-62.79 0-5.508 0-10-4.492-10-10 0-124.402 0-248.803 0-373.204.001-5.508 4.493-10 10-10z" fill-rule="evenodd" fill="#22d411" data-original="#000000" class=""></path></g></svg>